<svg xmlns="http://www.w3.org/2000/svg" version="1.1" xmlns:xlink="http://www.w3.org/1999/xlink" xmlns:svgjs="http://svgjs.dev/svgjs" width="2000" height="530"><g transform="matrix(1,0,0,1,-1.2121212121212466,-1.017205521214123)"><svg viewBox="0 0 396 181" data-background-color="#ffffff" preserveAspectRatio="xMidYMid meet" height="914" width="2000" xmlns="http://www.w3.org/2000/svg" xmlns:xlink="http://www.w3.org/1999/xlink"><defs></defs><g id="tight-bounds" transform="matrix(1,0,0,1,0.2400000000000091,0.20143785554056137)"><svg viewBox="0 0 395.52 180.5971242896019" height="180.5971242896019" width="395.52"><g><svg viewBox="0 0 397.4975999999999 181.5001099110499" height="180.5971242896019" width="395.52"><g><rect width="397.4975999999999" height="5.559108647697264" x="0" y="99.74448156937702" fill="#e22cc5" opacity="1" stroke-width="0" stroke="transparent" fill-opacity="1" class="rect-o-0" data-fill-palette-color="secondary" rx="1%" id="o-0" data-palette-color="#e22cc5"></rect></g><g transform="matrix(1,0,0,1,133.1631107344136,0)"><svg viewBox="0 0 131.1713785311727 85.19184113037895" height="85.19184113037895" width="131.1713785311727"><g><svg xmlns="http://www.w3.org/2000/svg" xmlns:xlink="http://www.w3.org/1999/xlink" version="1.1" x="8.000000000000007" y="0" viewBox="0 0.015000000596046448 100.00050354003906 73.97000122070312" enable-background="new 0 0 100 74" xml:space="preserve" width="115.17137853117269" height="85.19184113037895" class="icon-icon-0" data-fill-palette-color="accent" id="icon-0"><path fill="#e22cc5" d="M90.221 40.059l-3.367-3.367 7.399-7.398-7.399-7.4 3.367-3.367 9.082 9.083c0.93 0.93 0.93 2.438 0 3.367L90.221 40.059zM13.148 36.69l-7.4-7.398 7.4-7.399-3.367-3.367-9.084 9.082C0.251 28.054 0 28.66 0 29.292c0 0.631 0.251 1.237 0.697 1.683l9.084 9.082L13.148 36.69zM70.703 49.996C65.173 55.525 57.82 58.569 50 58.569s-15.172-3.044-20.703-8.573c-0.277-0.277-0.516-0.578-0.781-0.865l-3.794 3.795 0.014 0.006c0.264 0.282 0.498 0.58 0.772 0.854 1.522 1.522 3.175 2.869 4.911 4.065L16.143 72.125c-1.24 1.24-2.864 1.86-4.489 1.86s-3.251-0.62-4.489-1.86c-2.48-2.479-2.48-6.499 0-8.978l14.284-14.283 3.863-3.862c-7.205-11.321-5.887-26.541 3.985-36.412C34.826 3.06 42.18 0.015 50 0.015S65.173 3.06 70.703 8.589C82.118 20.005 82.118 38.579 70.703 49.996zM65.092 14.201c-4.031-4.03-9.391-6.25-15.092-6.25-5.7 0-11.06 2.22-15.092 6.25-8.319 8.32-8.319 21.86 0.001 30.183 4.03 4.028 9.391 6.248 15.09 6.248 5.701 0 11.061-2.22 15.092-6.248C73.413 36.062 73.413 22.522 65.092 14.201z" data-fill-palette-color="accent"></path></svg></g></svg></g><g><rect width="56.62999073441364" height="5.559108647697264" y="78.63273248268169" x="264.3344892655863" fill="#e22cc5" data-fill-palette-color="secondary"></rect><rect width="56.62999073441364" height="5.559108647697264" y="78.63273248268169" x="76.53311999999997" fill="#e22cc5" data-fill-palette-color="secondary"></rect></g></svg></g></svg><rect width="395.52" height="105" fill="none" stroke="none" visibility="hidden"></rect></g></svg></g></svg>