<?xml version="1.0" standalone="no"?>
<!DOCTYPE svg PUBLIC "-//W3C//DTD SVG 20010904//EN"
 "http://www.w3.org/TR/2001/REC-SVG-20010904/DTD/svg10.dtd">
<svg version="1.0" xmlns="http://www.w3.org/2000/svg"
 width="289.000000pt" height="213.000000pt" viewBox="0 0 289.000000 213.000000"
 preserveAspectRatio="xMidYMid meet">
<metadata>
Created by potrace 1.16, written by Peter Selinger 2001-2019
</metadata>
<g transform="translate(0.000000,213.000000) scale(0.100000,-0.100000)"
fill="#e22cc5" stroke="none">
<path d="M1235 2110 c-218 -56 -415 -206 -523 -400 -74 -132 -103 -253 -103
-420 1 -137 23 -236 80 -356 l39 -81 -255 -254 c-140 -140 -266 -273 -280
-297 -22 -37 -25 -52 -21 -107 6 -96 61 -157 154 -171 84 -12 109 5 347 244
l219 219 -64 50 c-107 86 -106 81 -48 138 l49 48 57 -52 c195 -178 493 -251
763 -186 160 39 340 154 445 285 371 466 162 1147 -409 1330 -103 33 -337 38
-450 10z m330 -225 c117 -25 208 -76 300 -169 122 -123 175 -251 175 -418 0
-203 -96 -384 -263 -496 -104 -69 -178 -93 -307 -99 -184 -9 -313 41 -446 172
-93 92 -144 183 -169 300 -89 422 288 799 710 710z"/>
<path d="M158 1473 c-75 -76 -139 -148 -143 -160 -3 -12 -1 -33 6 -45 14 -29
260 -278 274 -278 6 0 32 21 58 48 l47 48 -105 104 -105 105 107 107 107 108
-49 50 c-27 27 -52 50 -55 50 -3 0 -67 -62 -142 -137z"/>
<path d="M2537 1562 c-26 -26 -47 -52 -47 -58 0 -6 45 -55 100 -109 l101 -99
-101 -101 c-55 -55 -100 -105 -100 -111 0 -13 83 -94 96 -94 5 0 72 62 147
138 120 121 137 143 137 171 0 29 -17 51 -137 172 -75 76 -139 139 -143 139
-3 0 -27 -22 -53 -48z"/>
</g>
</svg>
