<svg xmlns="http://www.w3.org/2000/svg" version="1.1" xmlns:xlink="http://www.w3.org/1999/xlink" xmlns:svgjs="http://svgjs.dev/svgjs" width="2000" height="621" viewBox="0 0 2000 621"><g transform="matrix(1,0,0,1,-1.2121212121212466,1.103803031135385)"><svg viewBox="0 0 396 123" data-background-color="#030c21" preserveAspectRatio="xMidYMid meet" height="621" width="2000" xmlns="http://www.w3.org/2000/svg" xmlns:xlink="http://www.w3.org/1999/xlink"><defs></defs><g id="tight-bounds" transform="matrix(1,0,0,1,0.2400000000000091,-0.21862765350991253)"><svg viewBox="0 0 395.52 123.43725530701985" height="123.43725530701985" width="395.52"><g><svg viewBox="0 0 395.52 123.43725530701985" height="123.43725530701985" width="395.52"><g transform="matrix(1,0,0,1,0,76.28917583682119)"><svg viewBox="0 0 395.52 47.148079470198674" height="47.148079470198674" width="395.52"><g><svg viewBox="0 0 395.52 47.148079470198674" height="47.148079470198674" width="395.52"><g><svg viewBox="0 0 395.52 47.148079470198674" height="47.148079470198674" width="395.52"><g transform="matrix(1,0,0,1,0,0)"><svg width="395.52" viewBox="1 -35.5 301.98 36" height="47.148079470198674" data-palette-color="#fdf5ff"><g class="undefined-text-0" data-fill-palette-color="primary" id="text-0"><path d="M29.5-35L29.5-28 12-7 29.5-7 29.5 0 1 0 1-7 18.5-28 1-28 1-35 29.5-35ZM56-9.5L56-25.5Q56-28.5 53-28.5L53-28.5 44.5-28.5Q41.5-28.5 41.5-25.5L41.5-25.5 41.5-9.5Q41.5-6.5 44.5-6.5L44.5-6.5 53-6.5Q56-6.5 56-9.5L56-9.5ZM65-25.5L65-9.5Q65-4.25 62.62-1.88 60.25 0.5 55 0.5L55 0.5 42.5 0.5Q37.25 0.5 34.87-1.88 32.5-4.25 32.5-9.5L32.5-9.5 32.5-25.5Q32.5-30.75 34.87-33.13 37.25-35.5 42.5-35.5L42.5-35.5 55-35.5Q60.25-35.5 62.62-33.13 65-30.75 65-25.5L65-25.5ZM92.5-9.5L92.5-25.5Q92.5-28.5 89.5-28.5L89.5-28.5 81-28.5Q78-28.5 78-25.5L78-25.5 78-9.5Q78-6.5 81-6.5L81-6.5 89.5-6.5Q92.5-6.5 92.5-9.5L92.5-9.5ZM101.5-25.5L101.5-9.5Q101.5-4.25 99.12-1.88 96.75 0.5 91.5 0.5L91.5 0.5 79 0.5Q73.75 0.5 71.37-1.88 69-4.25 69-9.5L69-9.5 69-25.5Q69-30.75 71.37-33.13 73.75-35.5 79-35.5L79-35.5 91.5-35.5Q96.75-35.5 99.12-33.13 101.5-30.75 101.5-25.5L101.5-25.5ZM136.49 0L136.49-19.5 129.49-7 122.49-7 115.49-19.5 115.49 0 106.49 0 106.49-35 115.99-35 125.99-16.5 135.99-35 145.49-35 145.49 0 136.49 0ZM170.49-14L149.99-14 149.99-21 170.49-21 170.49-14ZM183.99-35L183.99-7 202.24-7 202.24 0 174.99 0 174.99-35 183.99-35ZM233.49-7L233.49 0 205.74 0 205.74-35 233.49-35 233.49-28 214.74-28 214.74-21.25 229.49-21.25 229.49-14.25 214.74-14.25 214.74-7 233.49-7ZM267.98-35L267.98 0 258.48 0 246.48-21 246.48 0 237.48 0 237.48-35 246.98-35 258.98-14 258.98-35 267.98-35ZM272.93-0.5L272.93-7.25Q286.63-6.5 291.48-6.5L291.48-6.5Q292.63-6.5 293.31-7.18 293.98-7.85 293.98-9L293.98-9 293.98-13.5 282.48-13.5Q277.23-13.5 274.86-15.88 272.48-18.25 272.48-23.5L272.48-23.5 272.48-25Q272.48-30.25 274.86-32.63 277.23-35 282.48-35L282.48-35 300.03-35 300.03-28 284.48-28Q281.48-28 281.48-25L281.48-25 281.48-24Q281.48-21 284.48-21L284.48-21 293.48-21Q298.38-21 300.68-18.7 302.98-16.4 302.98-11.5L302.98-11.5 302.98-9Q302.98-4.1 300.68-1.8 298.38 0.5 293.48 0.5L293.48 0.5Q290.93 0.5 288.08 0.4L288.08 0.4 283.48 0.2Q278.38-0.05 272.93-0.5L272.93-0.5Z" fill="#fdf5ff" data-fill-palette-color="primary"></path></g></svg></g></svg></g></svg></g></svg></g><g transform="matrix(1,0,0,1,153.71581207175632,0)"><svg viewBox="0 0 88.08837585648737 65.15864582781457" height="65.15864582781457" width="88.08837585648737"><g><svg xmlns="http://www.w3.org/2000/svg" xmlns:xlink="http://www.w3.org/1999/xlink" version="1.1" x="0" y="0" viewBox="0 0.015 100.0005 73.97" enable-background="new 0 0 100 74" xml:space="preserve" width="88.08837585648737" height="65.15864582781457" class="icon-icon-0" data-fill-palette-color="accent" id="icon-0"><path fill="#e22cc5" d="M90.221 40.059l-3.367-3.367 7.399-7.398-7.399-7.4 3.367-3.367 9.082 9.083c0.93 0.93 0.93 2.438 0 3.367L90.221 40.059zM13.148 36.69l-7.4-7.398 7.4-7.399-3.367-3.367-9.084 9.082C0.251 28.054 0 28.66 0 29.292c0 0.631 0.251 1.237 0.697 1.683l9.084 9.082L13.148 36.69zM70.703 49.996C65.173 55.525 57.82 58.569 50 58.569s-15.172-3.044-20.703-8.573c-0.277-0.277-0.516-0.578-0.781-0.865l-3.794 3.795 0.014 0.006c0.264 0.282 0.498 0.58 0.772 0.854 1.522 1.522 3.175 2.869 4.911 4.065L16.143 72.125c-1.24 1.24-2.864 1.86-4.489 1.86s-3.251-0.62-4.489-1.86c-2.48-2.479-2.48-6.499 0-8.978l14.284-14.283 3.863-3.862c-7.205-11.321-5.887-26.541 3.985-36.412C34.826 3.06 42.18 0.015 50 0.015S65.173 3.06 70.703 8.589C82.118 20.005 82.118 38.579 70.703 49.996zM65.092 14.201c-4.031-4.03-9.391-6.25-15.092-6.25-5.7 0-11.06 2.22-15.092 6.25-8.319 8.32-8.319 21.86 0.001 30.183 4.03 4.028 9.391 6.248 15.09 6.248 5.701 0 11.061-2.22 15.092-6.248C73.413 36.062 73.413 22.522 65.092 14.201z" data-fill-palette-color="accent"></path></svg></g></svg></g><g></g></svg></g></svg><rect width="395.52" height="123.43725530701985" fill="none" stroke="none" visibility="hidden"></rect></g></svg></g></svg>